<mxfile host="Electron" agent="Mozilla/5.0 (Windows NT 10.0; Win64; x64) AppleWebKit/537.36 (KHTML, like Gecko) draw.io/26.2.2 Chrome/134.0.6998.178 Electron/35.1.2 Safari/537.36" version="26.2.2">
  <diagram name="Page-1" id="i9OA1IzY3R_5EGLGmfCJ">
    <mxGraphModel dx="1092" dy="993" grid="1" gridSize="10" guides="1" tooltips="1" connect="1" arrows="1" fold="1" page="1" pageScale="1" pageWidth="850" pageHeight="1100" math="0" shadow="0">
      <root>
        <mxCell id="0" />
        <mxCell id="1" parent="0" />
        <mxCell id="3zWCZpUrzSKzt6nN1tPR-1" value="Customer" style="shape=umlActor;verticalLabelPosition=bottom;verticalAlign=top;html=1;outlineConnect=0;fillColor=#e1d5e7;strokeColor=#9673a6;" vertex="1" parent="1">
          <mxGeometry x="110" y="300" width="50" height="80" as="geometry" />
        </mxCell>
        <mxCell id="3zWCZpUrzSKzt6nN1tPR-2" value="Associate&lt;div&gt;&lt;br&gt;&lt;/div&gt;" style="shape=umlActor;verticalLabelPosition=bottom;verticalAlign=top;html=1;fillColor=#d5e8d4;strokeColor=#82b366;" vertex="1" parent="1">
          <mxGeometry x="710" y="80" width="50" height="80" as="geometry" />
        </mxCell>
        <mxCell id="3zWCZpUrzSKzt6nN1tPR-4" value="" style="rounded=0;whiteSpace=wrap;html=1;" vertex="1" parent="1">
          <mxGeometry x="240" y="30" width="400" height="1050" as="geometry" />
        </mxCell>
        <mxCell id="3zWCZpUrzSKzt6nN1tPR-5" value="&amp;nbsp; &amp;nbsp; &amp;nbsp; Final Project" style="text;strokeColor=none;fillColor=none;align=left;verticalAlign=middle;spacingLeft=4;spacingRight=4;overflow=hidden;points=[[0,0.5],[1,0.5]];portConstraint=eastwest;rotatable=0;whiteSpace=wrap;html=1;" vertex="1" parent="1">
          <mxGeometry x="365" y="30" width="120" height="30" as="geometry" />
        </mxCell>
        <mxCell id="3zWCZpUrzSKzt6nN1tPR-6" value="View Items" style="ellipse;whiteSpace=wrap;html=1;fillColor=#dae8fc;strokeColor=#6c8ebf;" vertex="1" parent="1">
          <mxGeometry x="365" y="80" width="120" height="80" as="geometry" />
        </mxCell>
        <mxCell id="3zWCZpUrzSKzt6nN1tPR-7" value="Enter Items ordered into POS" style="ellipse;whiteSpace=wrap;html=1;fillColor=#dae8fc;strokeColor=#6c8ebf;" vertex="1" parent="1">
          <mxGeometry x="365" y="260" width="120" height="80" as="geometry" />
        </mxCell>
        <mxCell id="3zWCZpUrzSKzt6nN1tPR-8" value="Credit Card Company&lt;div&gt;&lt;br&gt;&lt;/div&gt;" style="shape=umlActor;verticalLabelPosition=bottom;verticalAlign=top;html=1;fillColor=#f8cecc;strokeColor=#b85450;" vertex="1" parent="1">
          <mxGeometry x="700" y="290" width="60" height="80" as="geometry" />
        </mxCell>
        <mxCell id="3zWCZpUrzSKzt6nN1tPR-23" style="edgeStyle=orthogonalEdgeStyle;rounded=0;orthogonalLoop=1;jettySize=auto;html=1;exitX=0.5;exitY=1;exitDx=0;exitDy=0;entryX=0.5;entryY=0;entryDx=0;entryDy=0;" edge="1" parent="1" source="3zWCZpUrzSKzt6nN1tPR-10" target="3zWCZpUrzSKzt6nN1tPR-22">
          <mxGeometry relative="1" as="geometry" />
        </mxCell>
        <mxCell id="3zWCZpUrzSKzt6nN1tPR-10" value="Print Ticket" style="ellipse;whiteSpace=wrap;html=1;fillColor=#dae8fc;strokeColor=#6c8ebf;" vertex="1" parent="1">
          <mxGeometry x="365" y="390" width="120" height="80" as="geometry" />
        </mxCell>
        <mxCell id="3zWCZpUrzSKzt6nN1tPR-11" value="Create Order" style="ellipse;whiteSpace=wrap;html=1;fillColor=#dae8fc;strokeColor=#6c8ebf;" vertex="1" parent="1">
          <mxGeometry x="365" y="170" width="120" height="80" as="geometry" />
        </mxCell>
        <mxCell id="3zWCZpUrzSKzt6nN1tPR-17" value="" style="endArrow=classic;html=1;rounded=0;exitX=1;exitY=0.3333333333333333;exitDx=0;exitDy=0;exitPerimeter=0;entryX=0;entryY=0.5;entryDx=0;entryDy=0;" edge="1" parent="1" source="3zWCZpUrzSKzt6nN1tPR-1" target="3zWCZpUrzSKzt6nN1tPR-6">
          <mxGeometry width="50" height="50" relative="1" as="geometry">
            <mxPoint x="400" y="670" as="sourcePoint" />
            <mxPoint x="450" y="620" as="targetPoint" />
          </mxGeometry>
        </mxCell>
        <mxCell id="3zWCZpUrzSKzt6nN1tPR-18" value="" style="endArrow=classic;html=1;rounded=0;exitX=1;exitY=0.3333333333333333;exitDx=0;exitDy=0;exitPerimeter=0;entryX=0;entryY=0.5;entryDx=0;entryDy=0;" edge="1" parent="1" source="3zWCZpUrzSKzt6nN1tPR-1" target="3zWCZpUrzSKzt6nN1tPR-11">
          <mxGeometry width="50" height="50" relative="1" as="geometry">
            <mxPoint x="400" y="530" as="sourcePoint" />
            <mxPoint x="450" y="480" as="targetPoint" />
          </mxGeometry>
        </mxCell>
        <mxCell id="3zWCZpUrzSKzt6nN1tPR-19" value="" style="endArrow=classic;html=1;rounded=0;entryX=1;entryY=0.5;entryDx=0;entryDy=0;exitX=0;exitY=0.3333333333333333;exitDx=0;exitDy=0;exitPerimeter=0;" edge="1" parent="1" source="3zWCZpUrzSKzt6nN1tPR-2" target="3zWCZpUrzSKzt6nN1tPR-11">
          <mxGeometry width="50" height="50" relative="1" as="geometry">
            <mxPoint x="700" y="110" as="sourcePoint" />
            <mxPoint x="450" y="480" as="targetPoint" />
          </mxGeometry>
        </mxCell>
        <mxCell id="3zWCZpUrzSKzt6nN1tPR-20" value="" style="endArrow=classic;html=1;rounded=0;exitX=0;exitY=0.3333333333333333;exitDx=0;exitDy=0;exitPerimeter=0;entryX=1;entryY=0.5;entryDx=0;entryDy=0;" edge="1" parent="1" source="3zWCZpUrzSKzt6nN1tPR-2" target="3zWCZpUrzSKzt6nN1tPR-7">
          <mxGeometry width="50" height="50" relative="1" as="geometry">
            <mxPoint x="700" y="120" as="sourcePoint" />
            <mxPoint x="450" y="480" as="targetPoint" />
          </mxGeometry>
        </mxCell>
        <mxCell id="3zWCZpUrzSKzt6nN1tPR-21" value="" style="endArrow=classic;html=1;rounded=0;exitX=0.5;exitY=1;exitDx=0;exitDy=0;" edge="1" parent="1" source="3zWCZpUrzSKzt6nN1tPR-7" target="3zWCZpUrzSKzt6nN1tPR-10">
          <mxGeometry width="50" height="50" relative="1" as="geometry">
            <mxPoint x="400" y="530" as="sourcePoint" />
            <mxPoint x="450" y="480" as="targetPoint" />
          </mxGeometry>
        </mxCell>
        <mxCell id="3zWCZpUrzSKzt6nN1tPR-22" value="Close Transaction" style="ellipse;whiteSpace=wrap;html=1;fillColor=#dae8fc;strokeColor=#6c8ebf;" vertex="1" parent="1">
          <mxGeometry x="365" y="505" width="120" height="80" as="geometry" />
        </mxCell>
        <mxCell id="3zWCZpUrzSKzt6nN1tPR-28" style="edgeStyle=orthogonalEdgeStyle;rounded=0;orthogonalLoop=1;jettySize=auto;html=1;exitX=0.5;exitY=1;exitDx=0;exitDy=0;entryX=0.5;entryY=0;entryDx=0;entryDy=0;" edge="1" parent="1" source="3zWCZpUrzSKzt6nN1tPR-24" target="3zWCZpUrzSKzt6nN1tPR-25">
          <mxGeometry relative="1" as="geometry" />
        </mxCell>
        <mxCell id="3zWCZpUrzSKzt6nN1tPR-24" value="Payment" style="ellipse;whiteSpace=wrap;html=1;fillColor=#dae8fc;strokeColor=#6c8ebf;" vertex="1" parent="1">
          <mxGeometry x="365" y="610" width="120" height="80" as="geometry" />
        </mxCell>
        <mxCell id="3zWCZpUrzSKzt6nN1tPR-30" style="edgeStyle=orthogonalEdgeStyle;rounded=0;orthogonalLoop=1;jettySize=auto;html=1;exitX=0.5;exitY=1;exitDx=0;exitDy=0;" edge="1" parent="1" source="3zWCZpUrzSKzt6nN1tPR-25" target="3zWCZpUrzSKzt6nN1tPR-29">
          <mxGeometry relative="1" as="geometry" />
        </mxCell>
        <mxCell id="3zWCZpUrzSKzt6nN1tPR-25" value="Complete Checkout" style="ellipse;whiteSpace=wrap;html=1;fillColor=#dae8fc;strokeColor=#6c8ebf;" vertex="1" parent="1">
          <mxGeometry x="365" y="720" width="120" height="80" as="geometry" />
        </mxCell>
        <mxCell id="3zWCZpUrzSKzt6nN1tPR-26" value="" style="endArrow=classic;html=1;rounded=0;exitX=1;exitY=0.3333333333333333;exitDx=0;exitDy=0;exitPerimeter=0;entryX=0;entryY=0.5;entryDx=0;entryDy=0;" edge="1" parent="1" source="3zWCZpUrzSKzt6nN1tPR-1" target="3zWCZpUrzSKzt6nN1tPR-24">
          <mxGeometry width="50" height="50" relative="1" as="geometry">
            <mxPoint x="400" y="530" as="sourcePoint" />
            <mxPoint x="450" y="480" as="targetPoint" />
          </mxGeometry>
        </mxCell>
        <mxCell id="3zWCZpUrzSKzt6nN1tPR-27" value="" style="endArrow=classic;html=1;rounded=0;exitX=0;exitY=0.3333333333333333;exitDx=0;exitDy=0;exitPerimeter=0;entryX=1;entryY=0.5;entryDx=0;entryDy=0;" edge="1" parent="1" source="3zWCZpUrzSKzt6nN1tPR-8" target="3zWCZpUrzSKzt6nN1tPR-24">
          <mxGeometry width="50" height="50" relative="1" as="geometry">
            <mxPoint x="400" y="530" as="sourcePoint" />
            <mxPoint x="450" y="480" as="targetPoint" />
          </mxGeometry>
        </mxCell>
        <mxCell id="3zWCZpUrzSKzt6nN1tPR-29" value="Capture Sales&lt;div&gt;&amp;nbsp;for end of&amp;nbsp;&lt;/div&gt;&lt;div&gt;day report&lt;/div&gt;" style="ellipse;whiteSpace=wrap;html=1;fillColor=#dae8fc;strokeColor=#6c8ebf;" vertex="1" parent="1">
          <mxGeometry x="365" y="830" width="120" height="80" as="geometry" />
        </mxCell>
        <mxCell id="3zWCZpUrzSKzt6nN1tPR-31" value="print end of day&amp;nbsp;&lt;div&gt;report&lt;/div&gt;" style="ellipse;whiteSpace=wrap;html=1;fillColor=#dae8fc;strokeColor=#6c8ebf;" vertex="1" parent="1">
          <mxGeometry x="365" y="930" width="120" height="80" as="geometry" />
        </mxCell>
        <mxCell id="3zWCZpUrzSKzt6nN1tPR-32" value="" style="endArrow=classic;html=1;rounded=0;exitX=0;exitY=0.3333333333333333;exitDx=0;exitDy=0;exitPerimeter=0;entryX=1;entryY=0.5;entryDx=0;entryDy=0;" edge="1" parent="1" source="3zWCZpUrzSKzt6nN1tPR-2" target="3zWCZpUrzSKzt6nN1tPR-29">
          <mxGeometry width="50" height="50" relative="1" as="geometry">
            <mxPoint x="710" y="110" as="sourcePoint" />
            <mxPoint x="485" y="760" as="targetPoint" />
          </mxGeometry>
        </mxCell>
        <mxCell id="3zWCZpUrzSKzt6nN1tPR-33" value="" style="endArrow=classic;html=1;rounded=0;exitX=0;exitY=0.3333333333333333;exitDx=0;exitDy=0;exitPerimeter=0;entryX=1;entryY=0.5;entryDx=0;entryDy=0;" edge="1" parent="1" source="3zWCZpUrzSKzt6nN1tPR-2" target="3zWCZpUrzSKzt6nN1tPR-22">
          <mxGeometry width="50" height="50" relative="1" as="geometry">
            <mxPoint x="400" y="630" as="sourcePoint" />
            <mxPoint x="450" y="580" as="targetPoint" />
          </mxGeometry>
        </mxCell>
        <mxCell id="3zWCZpUrzSKzt6nN1tPR-34" value="" style="endArrow=classic;html=1;rounded=0;entryX=1;entryY=0.5;entryDx=0;entryDy=0;" edge="1" parent="1" target="3zWCZpUrzSKzt6nN1tPR-31">
          <mxGeometry width="50" height="50" relative="1" as="geometry">
            <mxPoint x="710" y="110" as="sourcePoint" />
            <mxPoint x="450" y="480" as="targetPoint" />
          </mxGeometry>
        </mxCell>
      </root>
    </mxGraphModel>
  </diagram>
</mxfile>
